<svg version="1.1" id="Layer_1" xmlns="http://www.w3.org/2000/svg" xmlns:xlink="http://www.w3.org/1999/xlink" x="0px" y="0px"
	 width="100%" viewBox="0 0 1280 676" enable-background="new 0 0 1280 676" xml:space="preserve">
<path fill="#FFFFFF" opacity="1.000000" stroke="none" 
	d="
M1281.000000,129.000000 
	C1281.000000,311.611908 1281.000000,494.223785 1281.000000,677.000000 
	C985.643372,677.000000 690.286682,677.000000 394.351074,676.676025 
	C379.122009,668.056458 363.732758,661.726135 346.837280,658.577271 
	C345.392212,658.220886 344.178314,658.073181 342.622223,657.721191 
	C341.492126,657.442505 340.704224,657.368103 339.760132,657.142273 
	C339.059662,656.963257 338.515320,656.935608 337.674805,656.786011 
	C336.954742,656.664429 336.530914,656.664856 335.797974,656.468140 
	C308.692322,651.813843 282.115814,653.021057 255.824631,659.708984 
	C240.506378,663.605591 225.591370,668.660828 212.000000,677.000000 
	C143.976669,677.000000 75.953346,677.000000 7.317182,676.630005 
	C8.477314,670.248657 10.250290,664.237305 12.022390,658.228882 
	C16.853853,658.995667 20.953749,659.635925 25.049875,660.299438 
	C28.993078,660.938110 32.912365,661.903259 36.879158,662.165833 
	C40.652298,662.415588 44.531998,665.017517 48.292099,662.774597 
	C48.352707,662.207153 48.413315,661.639771 48.473923,661.072327 
	C36.847733,659.091980 25.221539,657.111572 12.914587,655.015259 
	C17.152376,642.931030 21.187853,631.423706 25.245914,619.851990 
	C36.681664,621.721436 47.333576,623.512939 58.008430,625.155273 
	C59.660198,625.409424 61.417065,624.980469 63.125328,624.867432 
	C63.133892,624.239807 63.142452,623.612244 63.151012,622.984619 
	C51.075958,620.907166 39.000904,618.829773 26.480202,616.675659 
	C29.546438,609.137634 32.436092,602.258118 35.104206,595.293640 
	C35.668362,593.821045 35.422020,592.037964 35.549118,590.397949 
	C34.190723,591.459167 32.206207,592.239197 31.581690,593.630005 
	C28.789745,599.847412 26.292679,606.203918 23.885845,612.584473 
	C22.877270,615.258240 21.582108,616.047180 18.655087,615.354492 
	C12.831609,613.976257 6.891766,613.089722 0.999999,612.000000 
	C1.000000,609.629333 1.000000,607.258606 1.349033,604.500244 
	C2.841461,605.499023 3.724562,607.459839 5.194400,608.125793 
	C7.016551,608.951477 9.324778,608.704407 11.423040,608.920715 
	C11.402598,607.201111 11.577053,605.448120 11.290141,603.774170 
	C11.112057,602.735046 10.234465,601.815796 9.443616,600.450439 
	C11.276660,599.529053 13.023520,598.942810 14.386466,597.869141 
	C15.390601,597.078247 16.712017,595.336426 16.422602,594.582031 
	C16.013472,593.515503 14.330687,592.728699 13.034116,592.288940 
	C12.239332,592.019348 10.981032,592.370422 10.219690,592.876892 
	C6.832138,595.130432 4.498547,594.225830 2.700559,590.801208 
	C2.468133,590.358582 1.582854,590.258667 0.999990,590.000000 
	C1.000000,393.734589 1.000000,197.469147 1.000000,1.000000 
	C219.356613,1.000000 437.713287,1.000000 656.597473,1.335355 
	C668.955933,10.519440 682.169617,16.713106 696.058960,21.444258 
	C721.876038,30.238386 748.459351,33.154263 775.588684,30.797619 
	C801.413269,28.554329 824.208252,19.254229 843.000000,1.000000 
	C869.023315,1.000000 895.046631,1.000000 921.567383,1.337994 
	C924.677124,4.230200 927.073303,7.061526 929.935913,9.294896 
	C953.636536,27.786020 980.806274,32.811253 1010.342041,29.876171 
	C1011.955444,30.011686 1013.312683,30.084425 1014.550598,29.734835 
	C1015.295532,29.524433 1015.788635,28.263872 1016.507324,28.142805 
	C1026.608276,26.441338 1036.874390,25.469189 1046.813599,23.110600 
	C1066.630493,18.407982 1086.270508,12.959344 1106.438477,7.843693 
	C1126.872681,5.146194 1146.673218,5.076207 1166.314941,12.033087 
	C1170.914062,13.501878 1173.570923,16.513985 1175.450684,20.434282 
	C1179.401245,28.673155 1182.865479,37.207180 1187.501953,45.044651 
	C1208.835327,81.105690 1242.849487,99.950928 1281.000000,113.000000 
	C1281.000000,116.693581 1281.000000,120.387169 1280.620117,124.694016 
	C1277.010620,124.575821 1273.737305,123.996834 1270.560791,123.081612 
	C1263.656250,121.092255 1263.676514,121.022087 1260.576538,123.382622 
	C1267.753418,125.356590 1274.376709,127.178291 1281.000000,129.000000 
M207.620956,632.291138 
	C207.834915,633.681152 208.048874,635.071167 208.366776,637.136414 
	C214.006668,634.476257 219.154617,632.048035 224.879303,630.028748 
	C226.397827,632.413696 227.916351,634.798645 229.487473,637.266174 
	C231.537125,635.419128 233.575485,633.582214 235.787827,631.588562 
	C236.398026,633.224609 236.801819,634.307190 237.442032,636.023682 
	C244.889313,629.089478 251.891159,622.570068 258.893005,616.050598 
	C258.680939,615.741089 258.468842,615.431580 258.256744,615.122070 
	C256.610962,615.559265 254.965210,615.996460 252.844711,616.559814 
	C255.527588,613.086365 257.759674,610.196533 259.403198,606.983337 
	C239.347610,604.452271 219.452362,605.880493 199.695618,609.664185 
	C196.622086,610.252808 193.761490,611.953308 190.802429,613.139648 
	C194.356033,615.336060 197.464554,616.316589 200.620438,617.108337 
	C201.233047,617.262085 202.014786,616.557617 202.745758,616.465515 
	C203.911240,616.318848 205.099609,616.353943 206.268585,617.099792 
	C206.803864,621.975708 207.339142,626.851685 207.620956,632.291138 
M1132.669189,35.337856 
	C1134.933350,33.708775 1137.304565,32.207729 1139.437622,30.422068 
	C1143.073975,27.377954 1142.907104,23.675020 1138.939087,20.987242 
	C1135.402588,18.591789 1131.407349,18.125498 1127.698486,20.351551 
	C1124.917725,22.020580 1122.564819,24.402441 1119.306030,26.554787 
	C1112.501587,28.718348 1105.598999,30.622305 1098.930664,33.145550 
	C1095.103760,34.593639 1091.303589,36.600876 1088.108887,39.134888 
	C1080.191528,45.414757 1080.508789,53.908924 1088.480957,60.092976 
	C1100.590576,69.486504 1117.083740,65.579536 1124.838501,51.240932 
	C1127.593140,46.147442 1129.659424,40.681606 1132.669189,35.337856 
M50.180607,633.214111 
	C43.722103,629.557434 37.173622,629.279175 30.726641,633.071106 
	C23.103575,637.554810 23.110592,646.117310 30.719954,650.689331 
	C36.063007,653.899597 41.768890,654.268982 47.501812,651.848328 
	C57.022186,647.828369 58.244411,638.902588 50.180607,633.214111 
M914.968567,11.511158 
	C910.157532,2.087677 896.092651,0.278728 889.106628,8.184922 
	C885.560181,12.198493 886.000061,17.366434 890.193115,20.949408 
	C895.580688,25.553160 904.256470,26.080727 910.269531,22.156975 
	C913.861084,19.813318 916.173767,16.820225 914.968567,11.511158 
M1199.780884,88.688736 
	C1211.347534,98.768623 1224.039673,106.828453 1239.014160,110.840057 
	C1238.416748,109.244064 1237.368896,108.381676 1236.175415,107.840584 
	C1209.088013,95.560844 1187.288452,77.865448 1175.902222,49.376179 
	C1175.528687,48.441662 1174.061523,47.944138 1173.104248,47.242893 
	C1172.956665,48.454613 1172.361206,49.826828 1172.729126,50.853931 
	C1178.072876,65.771332 1187.533936,77.804932 1199.780884,88.688736 
M19.504810,539.283020 
	C21.609303,538.902527 23.835407,538.835266 25.792679,538.075500 
	C29.726000,536.548584 32.677322,533.975037 32.630184,529.267273 
	C32.585304,524.785034 29.731041,522.351868 25.989374,520.849609 
	C24.184975,520.125122 22.162661,519.694275 20.218397,519.610840 
	C12.373696,519.273987 6.107458,523.533325 5.946294,529.111633 
	C5.797961,534.245789 11.140513,538.505859 19.504810,539.283020 
M145.968002,658.005127 
	C144.576492,658.592896 143.184982,659.180603 141.793472,659.768311 
	C141.919052,660.279846 142.044647,660.791321 142.170227,661.302795 
	C146.750809,660.610474 151.331390,659.918152 155.911972,659.225830 
	C153.274658,657.070740 150.611221,655.949524 147.862198,655.107849 
	C147.576950,655.020508 146.783112,656.594299 145.968002,658.005127 
M111.088158,662.045776 
	C111.151909,662.697998 111.215668,663.350281 111.279419,664.002502 
	C114.610085,663.625977 117.940750,663.249390 121.271423,662.872864 
	C121.188858,662.166199 121.106300,661.459473 121.023743,660.752808 
	C117.921806,661.083862 114.819870,661.414978 111.088158,662.045776 
M1035.234619,41.532841 
	C1034.823853,42.264839 1034.413208,42.996841 1034.002563,43.728867 
	C1037.785889,44.861526 1041.558105,45.630859 1045.261963,44.158169 
	C1045.294556,43.684486 1045.327148,43.210808 1045.359619,42.737125 
	C1042.233887,42.314476 1039.108032,41.891827 1035.234619,41.532841 
M1025.436401,38.285770 
	C1023.352356,37.321873 1021.268311,36.357975 1019.184265,35.394073 
	C1018.873352,36.137909 1018.562439,36.881744 1018.251587,37.625576 
	C1021.497925,39.191219 1024.744263,40.756866 1027.990723,42.322510 
	C1028.312622,41.705933 1028.634521,41.089352 1028.956421,40.472775 
	C1027.996826,39.847507 1027.037231,39.222240 1025.436401,38.285770 
M99.129440,667.254883 
	C101.390396,666.546631 103.651360,665.838379 105.912315,665.130127 
	C105.740402,664.485291 105.568489,663.840393 105.396576,663.195496 
	C101.962502,663.996887 98.528419,664.798340 95.094345,665.599731 
	C95.165268,666.162720 95.236183,666.725708 95.307106,667.288696 
	C96.341614,667.357727 97.376122,667.426758 99.129440,667.254883 
M138.477249,646.772156 
	C138.929474,649.662354 139.323212,652.601868 143.936096,653.495728 
	C142.991318,650.330444 142.497711,648.156738 141.609299,646.158569 
	C141.440674,645.779297 139.707703,646.095642 138.477249,646.772156 
M161.872711,657.950134 
	C161.897385,658.602905 161.922058,659.255737 161.946747,659.908508 
	C165.233139,659.490784 168.519516,659.073059 171.805908,658.655334 
	C171.696655,657.924255 171.587418,657.193115 171.478165,656.462036 
	C168.499847,656.867981 165.521530,657.273926 161.872711,657.950134 
M147.281723,637.175049 
	C145.372757,638.303040 143.463791,639.431091 141.554825,640.559143 
	C141.856262,641.094360 142.157700,641.629578 142.459137,642.164795 
	C145.448792,640.919373 148.438446,639.673889 151.428101,638.428467 
	C151.377335,638.010010 151.326569,637.591553 151.275787,637.173096 
	C150.157516,637.120972 149.039261,637.068848 147.281723,637.175049 
M179.322784,652.954529 
	C178.203796,653.659973 177.084793,654.365479 175.965805,655.070923 
	C176.268402,655.631714 176.570984,656.192505 176.873581,656.753296 
	C179.897919,655.296021 182.922241,653.838745 185.946564,652.381409 
	C185.682861,651.743164 185.419144,651.104919 185.155441,650.466675 
	C183.426941,651.198853 181.698441,651.931030 179.322784,652.954529 
M90.541397,668.119324 
	C86.597710,667.678528 83.694679,669.449097 80.997696,671.657471 
	C81.295258,672.304382 81.592819,672.951294 81.890381,673.598206 
	C84.871773,671.975464 87.853165,670.352722 90.541397,668.119324 
M161.127960,640.161682 
	C159.648224,639.432007 158.168503,638.702271 156.688766,637.972595 
	C156.456390,638.437317 156.224030,638.902039 155.991653,639.366760 
	C158.079086,641.397949 160.166519,643.429077 162.253967,645.460266 
	C162.675537,645.097351 163.097107,644.734375 163.518677,644.371399 
	C162.883682,643.125244 162.248672,641.879089 161.127960,640.161682 
M193.238174,642.150208 
	C191.546524,644.029785 189.854874,645.909302 187.352509,648.689636 
	C192.508926,648.374695 194.204147,645.724365 195.759125,642.888245 
	C195.108231,642.552917 194.457336,642.217651 193.238174,642.150208 
z"/>
<path fill="#027FC9" opacity="1.000000" stroke="none" 
	d="
M1281.000000,112.531342 
	C1242.849487,99.950928 1208.835327,81.105690 1187.501953,45.044651 
	C1182.865479,37.207180 1179.401245,28.673155 1175.450684,20.434282 
	C1173.570923,16.513985 1170.914062,13.501878 1166.255615,11.713083 
	C1165.443970,10.085521 1165.199951,8.800113 1164.486450,7.878107 
	C1163.746582,6.922306 1162.551758,6.318627 1161.539917,5.510731 
	C1161.523804,5.460540 1161.418823,5.451454 1161.532715,5.267631 
	C1161.430664,5.121459 1161.214844,5.159110 1160.645264,5.103832 
	C1157.194214,3.673942 1154.097168,2.336980 1151.000000,1.000009 
	C1172.020874,1.000000 1193.041870,1.000000 1214.681641,1.354575 
	C1215.623779,2.995038 1215.599854,4.541439 1216.333496,5.519345 
	C1218.818848,8.831649 1218.612793,11.661064 1216.510864,15.294322 
	C1213.946167,19.727526 1215.154907,24.735352 1219.453125,27.110748 
	C1224.050293,29.651405 1229.472046,31.121370 1234.707886,31.925732 
	C1237.806396,32.401764 1240.019653,32.821331 1242.186279,35.362087 
	C1250.039673,44.571590 1263.462646,45.442356 1270.616699,36.853783 
	C1273.628662,33.237968 1276.533569,31.491392 1281.000000,32.000000 
	C1281.000000,58.687561 1281.000000,85.375122 1281.000000,112.531342 
z"/>
<path fill="#027FC9" opacity="1.000000" stroke="none" 
	d="
M842.531372,1.000000 
	C824.208252,19.254229 801.413269,28.554329 775.588684,30.797619 
	C748.459351,33.154263 721.876038,30.238386 696.058960,21.444258 
	C682.169617,16.713106 668.955933,10.519440 657.062500,1.335355 
	C718.687561,1.000000 780.375122,1.000000 842.531372,1.000000 
z"/>
<path fill="#027FC9" opacity="1.000000" stroke="none" 
	d="
M1105.983521,7.818853 
	C1086.270508,12.959344 1066.630493,18.407982 1046.813599,23.110600 
	C1036.874390,25.469189 1026.608276,26.441338 1016.507324,28.142805 
	C1015.788635,28.263872 1015.295532,29.524433 1014.550598,29.734835 
	C1013.312683,30.084425 1011.955444,30.011686 1010.348083,29.530632 
	C1011.359680,27.345173 1012.671692,25.745903 1013.333313,24.939442 
	C1011.607178,23.785494 1010.289185,22.904392 1009.118652,21.689056 
	C1009.156921,19.113775 1009.229614,16.840933 1008.846436,14.647716 
	C1008.698669,13.802217 1007.515198,13.137678 1006.803650,12.390702 
	C1006.211487,13.267974 1005.022095,14.235410 1005.138428,15.005657 
	C1005.497131,17.381451 1006.354370,19.681967 1006.591248,22.014889 
	C1004.089355,22.410078 1002.014099,22.802107 999.533447,23.182541 
	C986.957153,18.884045 974.633484,14.974054 962.688599,10.130026 
	C957.710266,8.111126 953.538513,4.103372 949.000000,0.999980 
	C969.020874,1.000000 989.041809,1.000000 1009.382507,1.303868 
	C1009.383789,1.988117 1008.989929,2.328110 1008.760132,2.756138 
	C1007.930908,4.300739 1007.101746,5.852325 1006.437378,7.468980 
	C1006.361084,7.654668 1007.321228,8.266296 1007.800842,8.680447 
	C1008.857178,7.363604 1009.898254,6.033855 1010.984375,4.742043 
	C1011.174438,4.515962 1011.554260,4.449392 1011.382629,4.531771 
	C1015.555481,5.511928 1019.345642,6.402205 1023.135803,7.292480 
	C1023.306030,6.673252 1023.476196,6.054024 1023.646423,5.434795 
	C1022.247192,4.955774 1020.813293,4.558105 1019.456726,3.979157 
	C1017.277588,3.049136 1015.149597,1.999251 1013.000000,1.000001 
	C1049.687622,1.000000 1086.375122,1.000000 1123.540894,1.335840 
	C1123.282593,2.005593 1122.546265,2.339504 1121.562256,2.450249 
	C1118.285278,3.403585 1115.270020,4.618595 1112.221436,5.743122 
	C1110.166626,6.501136 1108.064453,7.131436 1105.983521,7.818853 
z"/>
<path fill="#027FC9" opacity="1.000000" stroke="none" 
	d="
M339.916290,657.293701 
	C340.704224,657.368103 341.492126,657.442505 342.765900,657.963379 
	C344.523956,658.535156 345.796204,658.660583 347.068420,658.786011 
	C363.732758,661.726135 379.122009,668.056458 393.886047,676.676025 
	C341.645782,677.000000 289.291534,677.000000 236.501740,676.652283 
	C241.365616,673.166260 246.665070,670.027954 252.150925,667.148560 
	C253.345062,666.742554 254.352783,666.077637 255.380371,665.383667 
	C255.400253,665.354553 255.457977,665.314209 255.851654,665.477783 
	C261.450256,664.091614 266.647064,662.513672 271.865021,661.009033 
	C273.441437,660.554443 275.063629,660.214844 276.687500,659.978027 
	C279.628296,659.548950 282.835480,659.851074 285.494598,658.771729 
	C298.497192,653.493713 311.798615,656.390259 325.021851,656.786438 
	C328.712402,656.897034 332.411774,656.713806 336.107086,656.665283 
	C336.530914,656.664856 336.954742,656.664429 337.791412,657.016479 
	C338.774933,657.343872 339.345612,657.318787 339.916290,657.293701 
z"/>
<path fill="#1A84CB" opacity="1.000000" stroke="none" 
	d="
M0.999999,612.375000 
	C6.891766,613.089722 12.831609,613.976257 18.655087,615.354492 
	C21.582108,616.047180 22.877270,615.258240 23.885845,612.584473 
	C26.292679,606.203918 28.789745,599.847412 31.581690,593.630005 
	C32.206207,592.239197 34.190723,591.459167 35.549118,590.397949 
	C35.422020,592.037964 35.668362,593.821045 35.104206,595.293640 
	C32.436092,602.258118 29.546438,609.137634 26.480202,616.675659 
	C39.000904,618.829773 51.075958,620.907166 63.151012,622.984619 
	C63.142452,623.612244 63.133892,624.239807 63.125328,624.867432 
	C61.417065,624.980469 59.660198,625.409424 58.008430,625.155273 
	C47.333576,623.512939 36.681664,621.721436 25.245914,619.851990 
	C21.187853,631.423706 17.152376,642.931030 12.914587,655.015259 
	C25.221539,657.111572 36.847733,659.091980 48.473923,661.072327 
	C48.413315,661.639771 48.352707,662.207153 48.292099,662.774597 
	C44.531998,665.017517 40.652298,662.415588 36.879158,662.165833 
	C32.912365,661.903259 28.993078,660.938110 25.049875,660.299438 
	C20.953749,659.635925 16.853853,658.995667 12.022390,658.228882 
	C10.250290,664.237305 8.477314,670.248657 6.852170,676.630005 
	C5.933331,677.000000 4.866662,677.000000 3.235315,676.615356 
	C4.348751,670.091064 6.026864,663.951355 7.781257,657.532532 
	C5.406904,656.995911 3.203454,656.497925 1.000002,656.000000 
	C1.000000,655.250000 1.000000,654.500000 1.401383,653.428955 
	C4.491775,652.931641 9.153444,653.521545 9.565375,652.460938 
	C13.791965,641.578064 17.329613,630.427734 21.168367,619.028809 
	C14.244077,617.645630 7.622036,616.322815 0.999997,615.000000 
	C1.000000,614.250000 1.000000,613.500000 0.999999,612.375000 
z"/>
<path fill="#F7FBFD" opacity="1.000000" stroke="none" 
	d="
M948.531433,0.999980 
	C953.538513,4.103372 957.710266,8.111126 962.688599,10.130026 
	C974.633484,14.974054 986.957153,18.884045 999.839539,23.404026 
	C1003.324463,24.158344 1006.097717,24.679585 1008.871033,25.200825 
	C1008.092407,26.481058 1007.380615,26.883686 1006.640259,26.945593 
	C982.691040,28.948267 959.929810,25.298725 939.480896,11.944934 
	C934.894165,8.949612 931.138367,4.681915 927.000000,0.999981 
	C934.020935,1.000000 941.041931,1.000000 948.531433,0.999980 
z"/>
<path fill="#DFEFF8" opacity="1.000000" stroke="none" 
	d="
M1281.000000,31.666668 
	C1276.533569,31.491392 1273.628662,33.237968 1270.616699,36.853783 
	C1263.462646,45.442356 1250.039673,44.571590 1242.186279,35.362087 
	C1240.019653,32.821331 1237.806396,32.401764 1234.707886,31.925732 
	C1229.472046,31.121370 1224.050293,29.651405 1219.453125,27.110748 
	C1215.154907,24.735352 1213.946167,19.727526 1216.510864,15.294322 
	C1218.612793,11.661064 1218.818848,8.831649 1216.333496,5.519345 
	C1215.599854,4.541439 1215.623779,2.995038 1215.150269,1.354575 
	C1215.750000,1.000000 1216.500000,1.000000 1217.577393,1.390499 
	C1218.634399,4.175224 1219.364014,6.569451 1220.305298,9.657902 
	C1225.456177,6.401512 1229.728027,3.700779 1234.000000,1.000023 
	C1235.388916,1.000000 1236.777832,1.000000 1238.343018,1.301444 
	C1237.630127,2.973898 1236.079346,4.303004 1235.989258,5.724608 
	C1235.802612,8.671131 1236.634766,11.669201 1236.605713,14.641732 
	C1236.562256,19.053465 1238.173462,21.977032 1242.704834,22.823303 
	C1246.506348,23.533287 1250.547852,25.315939 1254.075928,24.604424 
	C1260.031616,23.403322 1265.676025,20.633581 1271.425781,18.455904 
	C1272.644165,17.994480 1274.033813,17.491526 1274.848633,16.569410 
	C1276.231079,15.004445 1274.620239,3.044706 1273.000000,1.000000 
	C1274.833374,1.000000 1276.730469,1.303187 1278.486084,0.933689 
	C1281.649048,0.267952 1280.951904,2.345620 1280.638428,4.301555 
	C1279.407837,4.280570 1278.538940,3.958030 1277.703613,3.647935 
	C1277.703613,7.691522 1277.703613,11.335310 1277.703613,15.459824 
	C1279.228027,14.784737 1280.114014,14.392367 1281.000000,13.999999 
	C1281.000000,14.444445 1281.000000,14.888889 1280.668823,15.817369 
	C1274.666626,19.536303 1278.229370,25.598021 1274.888062,30.479664 
	C1277.795410,30.251486 1279.397705,30.125738 1281.000000,29.999994 
	C1281.000000,30.444445 1281.000000,30.888889 1281.000000,31.666668 
M1268.778809,36.196865 
	C1269.590210,35.029560 1270.401611,33.862251 1271.717773,31.968672 
	C1261.313477,31.581177 1251.900146,24.338303 1242.243042,31.967237 
	C1248.418701,41.552322 1259.619507,43.613316 1268.778809,36.196865 
M1237.540039,29.830433 
	C1237.417725,18.604776 1226.252319,18.491997 1220.912109,12.384301 
	C1215.873901,19.150064 1217.154297,25.549095 1224.177002,28.127245 
	C1228.098755,29.566969 1232.559204,29.538857 1237.540039,29.830433 
M1263.758179,28.869755 
	C1265.874268,29.233461 1267.994995,29.881155 1270.104370,29.845613 
	C1271.222900,29.826767 1272.945557,28.859001 1273.308105,27.905939 
	C1274.266968,25.385559 1274.632935,22.639599 1275.444824,19.057266 
	C1268.162598,21.663179 1261.912842,23.899652 1254.407471,26.585413 
	C1258.172119,27.537739 1260.557617,28.141205 1263.758179,28.869755 
M1234.071777,14.142361 
	C1233.692505,11.136829 1233.313110,8.131299 1232.848999,4.454400 
	C1229.086548,6.602980 1225.792114,8.484231 1221.639160,10.855827 
	C1226.303711,14.000612 1230.040161,16.519697 1234.553711,19.562698 
	C1234.374268,17.359928 1234.275146,16.143858 1234.071777,14.142361 
M1245.491455,25.775953 
	C1243.392578,25.106171 1241.293701,24.436388 1238.366821,23.502348 
	C1239.242310,25.978666 1239.805664,27.572418 1240.530273,29.621836 
	C1242.844360,28.971359 1244.838867,28.410715 1246.833374,27.850071 
	C1246.621582,27.237223 1246.409912,26.624374 1245.491455,25.775953 
z"/>
<path fill="#F7FBFD" opacity="1.000000" stroke="none" 
	d="
M0.999997,615.468628 
	C7.622036,616.322815 14.244077,617.645630 21.168367,619.028809 
	C17.329613,630.427734 13.791965,641.578064 9.565375,652.460938 
	C9.153444,653.521545 4.491775,652.931641 1.401383,653.053955 
	C1.000000,640.645752 1.000000,628.291565 0.999997,615.468628 
z"/>
<path fill="#0B81CA" opacity="1.000000" stroke="none" 
	d="
M1272.531372,1.000000 
	C1274.620239,3.044706 1276.231079,15.004445 1274.848633,16.569410 
	C1274.033813,17.491526 1272.644165,17.994480 1271.425781,18.455904 
	C1265.676025,20.633581 1260.031616,23.403322 1254.075928,24.604424 
	C1250.547852,25.315939 1246.506348,23.533287 1242.704834,22.823303 
	C1238.173462,21.977032 1236.562256,19.053465 1236.605713,14.641732 
	C1236.634766,11.669201 1235.802612,8.671131 1235.989258,5.724608 
	C1236.079346,4.303004 1237.630127,2.973898 1238.759766,1.301444 
	C1250.020874,1.000000 1261.041870,1.000000 1272.531372,1.000000 
M1266.864258,12.914531 
	C1267.873291,8.442764 1265.781982,5.633140 1261.957764,3.744071 
	C1256.828247,1.210237 1250.854614,1.781836 1247.053833,5.178491 
	C1242.993164,8.807436 1243.294434,13.757377 1247.701050,16.967020 
	C1253.308960,21.051634 1263.635986,19.710415 1266.864258,12.914531 
z"/>
<path fill="#1A84CB" opacity="1.000000" stroke="none" 
	d="
M335.797974,656.468201 
	C332.411774,656.713806 328.712402,656.897034 325.021851,656.786438 
	C311.798615,656.390259 298.497192,653.493713 285.494598,658.771729 
	C282.835480,659.851074 279.628296,659.548950 276.687500,659.978027 
	C275.063629,660.214844 273.441437,660.554443 271.865021,661.009033 
	C266.647064,662.513672 261.450256,664.091614 256.144836,665.274719 
	C259.112610,663.759277 262.180878,662.610596 265.249115,661.461914 
	C248.550934,663.851929 232.695267,668.696228 218.000000,677.000000 
	C216.285645,677.000000 214.571289,677.000000 212.428467,677.000000 
	C225.591370,668.660828 240.506378,663.605591 255.824631,659.708984 
	C282.115814,653.021057 308.692322,651.813843 335.797974,656.468201 
M283.576385,657.299561 
	C283.361145,657.010986 283.145874,656.722351 282.930603,656.433777 
	C282.745453,656.609436 282.560303,656.785156 282.375153,656.960815 
	C282.655151,657.187866 282.935150,657.414978 283.576385,657.299561 
z"/>
<path fill="#1A84CB" opacity="1.000000" stroke="none" 
	d="
M926.583374,0.999981 
	C931.138367,4.681915 934.894165,8.949612 939.480896,11.944934 
	C959.929810,25.298725 982.691040,28.948267 1006.640259,26.945593 
	C1007.380615,26.883686 1008.092407,26.481058 1008.871033,25.200825 
	C1006.097717,24.679585 1003.324463,24.158344 1000.244995,23.415619 
	C1002.014099,22.802107 1004.089355,22.410078 1006.916687,22.014746 
	C1008.102966,22.015388 1008.537048,22.019337 1008.971191,22.023289 
	C1010.289185,22.904392 1011.607178,23.785494 1013.333313,24.939442 
	C1012.671692,25.745903 1011.359680,27.345173 1010.041626,29.289982 
	C980.806274,32.811253 953.636536,27.786020 929.935913,9.294896 
	C927.073303,7.061526 924.677124,4.230200 922.032410,1.337994 
	C923.388916,1.000000 924.777771,1.000000 926.583374,0.999981 
z"/>
<path fill="#FB7867" opacity="1.000000" stroke="none" 
	d="
M0.999990,590.464722 
	C1.582854,590.258667 2.468133,590.358582 2.700559,590.801208 
	C4.498547,594.225830 6.832138,595.130432 10.219690,592.876892 
	C10.981032,592.370422 12.239332,592.019348 13.034116,592.288940 
	C14.330687,592.728699 16.013472,593.515503 16.422602,594.582031 
	C16.712017,595.336426 15.390601,597.078247 14.386466,597.869141 
	C13.023520,598.942810 11.276660,599.529053 9.443616,600.450439 
	C10.234465,601.815796 11.112057,602.735046 11.290141,603.774170 
	C11.577053,605.448120 11.402598,607.201111 11.423040,608.920715 
	C9.324778,608.704407 7.016551,608.951477 5.194400,608.125793 
	C3.724562,607.459839 2.841461,605.499023 1.349033,604.056274 
	C1.000000,599.643127 1.000000,595.286194 0.999990,590.464722 
z"/>
<path fill="#F7FBFD" opacity="1.000000" stroke="none" 
	d="
M218.467941,677.000000 
	C232.695267,668.696228 248.550934,663.851929 265.249115,661.461914 
	C262.180878,662.610596 259.112610,663.759277 255.751160,665.111084 
	C255.457977,665.314209 255.400253,665.354553 255.080109,665.450073 
	C253.828140,665.993530 252.896317,666.441528 251.964508,666.889648 
	C246.665070,670.027954 241.365616,673.166260 236.033081,676.652283 
	C230.311966,677.000000 224.623917,677.000000 218.467941,677.000000 
z"/>
<path fill="#DFEFF8" opacity="1.000000" stroke="none" 
	d="
M1121.809814,2.673422 
	C1122.546265,2.339504 1123.282593,2.005593 1124.009521,1.335840 
	C1132.687622,1.000000 1141.375122,1.000000 1150.531372,1.000009 
	C1154.097168,2.336980 1157.194214,3.673942 1160.722900,5.212424 
	C1161.154297,5.413945 1161.418823,5.451454 1161.418823,5.451454 
	C1161.418823,5.451454 1161.523804,5.460540 1161.633545,5.843349 
	C1160.914551,6.420128 1160.057373,6.861467 1159.261108,6.770432 
	C1149.452148,5.649023 1139.654907,4.424445 1129.847656,3.287458 
	C1127.180542,2.978246 1124.489746,2.872536 1121.809814,2.673422 
z"/>
<path fill="#F7FBFD" opacity="1.000000" stroke="none" 
	d="
M1.000002,656.468872 
	C3.203454,656.497925 5.406904,656.995911 7.781257,657.532532 
	C6.026864,663.951355 4.348751,670.091064 2.835316,676.615356 
	C2.333327,676.359253 1.103914,675.732422 1.087730,675.075684 
	C0.938838,669.032654 1.000000,662.984497 1.000002,656.468872 
z"/>
<path fill="#1A84CB" opacity="1.000000" stroke="none" 
	d="
M1281.000000,128.600006 
	C1274.376709,127.178291 1267.753418,125.356590 1260.576538,123.382622 
	C1263.676514,121.022087 1263.656250,121.092255 1270.560791,123.081612 
	C1273.737305,123.996834 1277.010620,124.575821 1280.620117,125.153641 
	C1281.000000,126.066673 1281.000000,127.133339 1281.000000,128.600006 
z"/>
<path fill="#0B81CA" opacity="1.000000" stroke="none" 
	d="
M1233.533203,1.000023 
	C1229.728027,3.700779 1225.456177,6.401512 1220.305298,9.657902 
	C1219.364014,6.569451 1218.634399,4.175224 1217.952393,1.390499 
	C1223.022095,1.000000 1228.044189,1.000000 1233.533203,1.000023 
z"/>
<path fill="#0B81CA" opacity="1.000000" stroke="none" 
	d="
M1012.625000,1.000001 
	C1015.149597,1.999251 1017.277588,3.049136 1019.456726,3.979157 
	C1020.813293,4.558105 1022.247192,4.955774 1023.646423,5.434795 
	C1023.476196,6.054024 1023.306030,6.673252 1023.135803,7.292480 
	C1019.345642,6.402205 1015.555481,5.511928 1011.382629,4.531771 
	C1011.554260,4.449392 1011.174438,4.515962 1010.984375,4.742043 
	C1009.898254,6.033855 1008.857178,7.363604 1007.800842,8.680447 
	C1007.321228,8.266296 1006.361084,7.654668 1006.437378,7.468980 
	C1007.101746,5.852325 1007.930908,4.300739 1008.760132,2.756138 
	C1008.989929,2.328110 1009.383789,1.988117 1009.851196,1.303868 
	C1010.750000,1.000000 1011.500000,1.000000 1012.625000,1.000001 
z"/>
<path fill="#1A84CB" opacity="1.000000" stroke="none" 
	d="
M1281.000000,29.535343 
	C1279.397705,30.125738 1277.795410,30.251486 1274.888062,30.479664 
	C1278.229370,25.598021 1274.666626,19.536303 1280.668823,16.150702 
	C1281.000000,20.356899 1281.000000,24.713799 1281.000000,29.535343 
z"/>
<path fill="#1A84CB" opacity="1.000000" stroke="none" 
	d="
M1281.000000,13.550020 
	C1280.114014,14.392367 1279.228027,14.784737 1277.703613,15.459824 
	C1277.703613,11.335310 1277.703613,7.691522 1277.703613,3.647935 
	C1278.538940,3.958030 1279.407837,4.280570 1280.638428,4.801555 
	C1281.000000,7.700014 1281.000000,10.400027 1281.000000,13.550020 
z"/>
<path fill="#FCB041" opacity="1.000000" stroke="none" 
	d="
M1132.039917,35.385727 
	C1129.659424,40.681606 1127.593140,46.147442 1124.838501,51.240932 
	C1117.083740,65.579536 1100.590576,69.486504 1088.480957,60.092976 
	C1080.508789,53.908924 1080.191528,45.414757 1088.108887,39.134888 
	C1091.303589,36.600876 1095.103760,34.593639 1098.930664,33.145550 
	C1105.598999,30.622305 1112.501587,28.718348 1119.871338,26.642471 
	C1120.981079,27.326426 1121.525757,27.922695 1121.716064,28.637722 
	C1114.640259,32.211735 1107.918701,35.666992 1101.197266,39.122246 
	C1101.314209,39.392101 1101.431274,39.661961 1101.548218,39.931816 
	C1103.316650,39.673485 1105.084961,39.415154 1106.853394,39.156822 
	C1106.964600,39.471081 1107.075806,39.785343 1107.187012,40.099602 
	C1105.970947,40.995075 1104.754883,41.890553 1103.538818,42.786026 
	C1103.726807,43.261173 1103.914795,43.736317 1104.102783,44.211464 
	C1106.395752,43.521759 1108.688599,42.832058 1111.318115,42.041069 
	C1110.435181,44.201057 1109.786499,45.787655 1109.137817,47.374252 
	C1109.559204,47.660511 1109.980591,47.946766 1110.401978,48.233025 
	C1112.031494,46.834858 1113.661011,45.436691 1116.070923,43.368931 
	C1116.343750,45.811642 1116.543823,47.602783 1116.858398,50.418362 
	C1120.874268,43.972420 1124.434692,38.257526 1128.301270,32.633400 
	C1129.751709,33.611355 1130.895752,34.498543 1132.039917,35.385727 
z"/>
<path fill="#FB7867" opacity="1.000000" stroke="none" 
	d="
M259.991760,607.306763 
	C257.759674,610.196533 255.527588,613.086365 252.844711,616.559814 
	C254.965210,615.996460 256.610962,615.559265 258.256744,615.122070 
	C258.468842,615.431580 258.680939,615.741089 258.893005,616.050598 
	C251.891159,622.570068 244.889313,629.089478 237.442032,636.023682 
	C236.801819,634.307190 236.398026,633.224609 235.787827,631.588562 
	C233.575485,633.582214 231.537125,635.419128 229.487473,637.266174 
	C227.916351,634.798645 226.397827,632.413696 224.415192,629.548706 
	C220.767029,626.706970 217.582993,624.345215 214.691330,621.716614 
	C228.137558,617.288025 241.291412,613.126343 254.803040,608.934204 
	C256.771149,608.371460 258.381470,607.839111 259.991760,607.306763 
M240.907593,626.788452 
	C240.766632,627.299011 240.625671,627.809509 240.484680,628.320007 
	C241.114685,628.001343 241.744690,627.682617 242.874420,626.931763 
	C242.798340,626.563843 242.722260,626.195923 242.646149,625.828003 
	C242.278000,626.049377 241.909851,626.270813 240.907593,626.788452 
M248.368958,620.670654 
	C248.013306,621.040405 247.657669,621.410156 247.302048,621.779907 
	C247.779633,621.639465 248.257217,621.499023 248.368958,620.670654 
z"/>
<path fill="#FCB041" opacity="1.000000" stroke="none" 
	d="
M50.469246,633.440735 
	C58.244411,638.902588 57.022186,647.828369 47.501812,651.848328 
	C41.768890,654.268982 36.063007,653.899597 30.719954,650.689331 
	C23.110592,646.117310 23.103575,637.554810 30.726641,633.071106 
	C37.173622,629.279175 43.722103,629.557434 50.469246,633.440735 
M45.723873,638.750244 
	C42.918396,638.227051 39.958176,636.938599 37.364517,637.462952 
	C35.765209,637.786377 33.700958,640.854431 33.664604,642.725586 
	C33.604416,645.823059 38.753777,647.974915 42.503963,646.690552 
	C45.922234,645.519958 48.669781,643.678894 45.723873,638.750244 
z"/>
<path fill="#0B81CA" opacity="1.000000" stroke="none" 
	d="
M259.697510,607.145020 
	C258.381470,607.839111 256.771149,608.371460 254.322357,608.905945 
	C251.510391,609.140991 249.525452,609.303101 247.565155,609.618286 
	C233.800034,611.831909 220.039963,614.077087 206.278290,616.312195 
	C205.099609,616.353943 203.911240,616.318848 202.745758,616.465515 
	C202.014786,616.557617 201.233047,617.262085 200.620438,617.108337 
	C197.464554,616.316589 194.356033,615.336060 190.802429,613.139648 
	C193.761490,611.953308 196.622086,610.252808 199.695618,609.664185 
	C219.452362,605.880493 239.347610,604.452271 259.697510,607.145020 
z"/>
<path fill="#FB7867" opacity="1.000000" stroke="none" 
	d="
M915.095642,11.859930 
	C916.173767,16.820225 913.861084,19.813318 910.269531,22.156975 
	C904.256470,26.080727 895.580688,25.553160 890.193115,20.949408 
	C886.000061,17.366434 885.560181,12.198493 889.106628,8.184922 
	C896.092651,0.278728 910.157532,2.087677 915.095642,11.859930 
M906.078674,11.239562 
	C904.765747,10.579838 903.291077,9.172716 902.173157,9.414529 
	C899.777710,9.932668 897.344421,11.016614 895.423401,12.508529 
	C894.889587,12.923022 895.797119,16.802345 896.560364,16.990110 
	C899.358582,17.678391 902.554016,18.143984 905.252869,17.412571 
	C907.502625,16.802862 908.640808,14.261469 906.078674,11.239562 
z"/>
<path fill="#1A84CB" opacity="1.000000" stroke="none" 
	d="
M1199.509521,88.460144 
	C1187.533936,77.804932 1178.072876,65.771332 1172.729126,50.853931 
	C1172.361206,49.826828 1172.956665,48.454613 1173.104248,47.242889 
	C1174.061523,47.944138 1175.528687,48.441662 1175.902222,49.376179 
	C1187.288452,77.865448 1209.088013,95.560844 1236.175415,107.840584 
	C1237.368896,108.381676 1238.416748,109.244064 1239.014160,110.840057 
	C1224.039673,106.828453 1211.347534,98.768623 1199.509521,88.460144 
z"/>
<path fill="#0B81CA" opacity="1.000000" stroke="none" 
	d="
M19.104691,539.283936 
	C11.140513,538.505859 5.797961,534.245789 5.946294,529.111633 
	C6.107458,523.533325 12.373696,519.273987 20.218397,519.610840 
	C22.162661,519.694275 24.184975,520.125122 25.989374,520.849609 
	C29.731041,522.351868 32.585304,524.785034 32.630184,529.267273 
	C32.677322,533.975037 29.726000,536.548584 25.792679,538.075500 
	C23.835407,538.835266 21.609303,538.902527 19.104691,539.283936 
M18.684793,525.095764 
	C16.991364,526.439026 15.079792,527.609802 13.774447,529.260010 
	C13.486822,529.623657 15.162123,532.549255 16.260981,532.788025 
	C18.479555,533.270081 21.023735,533.066467 23.226395,532.429260 
	C24.176189,532.154480 25.407084,529.229004 25.150732,528.994629 
	C23.471638,527.459412 21.420462,526.331299 18.684793,525.095764 
z"/>
<path fill="#0B81CA" opacity="1.000000" stroke="none" 
	d="
M1132.354492,35.361794 
	C1130.895752,34.498543 1129.751709,33.611355 1128.177979,32.462933 
	C1127.528320,32.016705 1127.277100,31.896965 1126.838623,31.567719 
	C1125.292725,30.446127 1123.902954,29.599300 1122.423462,28.654285 
	C1122.333740,28.556099 1122.070312,28.518955 1122.070312,28.518959 
	C1121.525757,27.922695 1120.981079,27.326426 1120.229004,26.598560 
	C1122.564819,24.402441 1124.917725,22.020580 1127.698486,20.351551 
	C1131.407349,18.125498 1135.402588,18.591789 1138.939087,20.987242 
	C1142.907104,23.675020 1143.073975,27.377954 1139.437622,30.422068 
	C1137.304565,32.207729 1134.933350,33.708775 1132.354492,35.361794 
z"/>
<path fill="#0D3047" opacity="1.000000" stroke="none" 
	d="
M206.273438,616.705994 
	C220.039963,614.077087 233.800034,611.831909 247.565155,609.618286 
	C249.525452,609.303101 251.510391,609.140991 253.964600,608.936401 
	C241.291412,613.126343 228.137558,617.288025 214.407684,621.841858 
	C212.752502,624.064026 211.706314,625.914551 210.583344,627.717285 
	C209.731018,629.085632 208.780975,630.393066 207.874420,631.727600 
	C207.339142,626.851685 206.803864,621.975708 206.273438,616.705994 
z"/>
<path fill="#1A84CB" opacity="1.000000" stroke="none" 
	d="
M1121.562256,2.450255 
	C1124.489746,2.872536 1127.180542,2.978246 1129.847656,3.287458 
	C1139.654907,4.424445 1149.452148,5.649023 1159.261108,6.770432 
	C1160.057373,6.861467 1160.914551,6.420128 1161.649658,5.893540 
	C1162.551758,6.318627 1163.746582,6.922306 1164.486450,7.878107 
	C1165.199951,8.800113 1165.443970,10.085521 1165.953369,11.531260 
	C1146.673218,5.076207 1126.872681,5.146194 1106.438477,7.843698 
	C1108.064453,7.131436 1110.166626,6.501136 1112.221436,5.743122 
	C1115.270020,4.618595 1118.285278,3.403585 1121.562256,2.450255 
z"/>
<path fill="#0B81CA" opacity="1.000000" stroke="none" 
	d="
M207.747681,632.009399 
	C208.780975,630.393066 209.731018,629.085632 210.583344,627.717285 
	C211.706314,625.914551 212.752502,624.064026 214.115326,622.108765 
	C217.582993,624.345215 220.767029,626.706970 224.126816,629.344238 
	C219.154617,632.048035 214.006668,634.476257 208.366776,637.136414 
	C208.048874,635.071167 207.834915,633.681152 207.747681,632.009399 
z"/>
<path fill="#1A84CB" opacity="1.000000" stroke="none" 
	d="
M146.096619,657.701233 
	C146.783112,656.594299 147.576950,655.020508 147.862198,655.107849 
	C150.611221,655.949524 153.274658,657.070740 155.911972,659.225830 
	C151.331390,659.918152 146.750809,660.610474 142.170227,661.302795 
	C142.044647,660.791321 141.919052,660.279846 141.793472,659.768311 
	C143.184982,659.180603 144.576492,658.592896 146.096619,657.701233 
z"/>
<path fill="#1A84CB" opacity="1.000000" stroke="none" 
	d="
M111.403046,661.895874 
	C114.819870,661.414978 117.921806,661.083862 121.023743,660.752808 
	C121.106300,661.459473 121.188858,662.166199 121.271423,662.872864 
	C117.940750,663.249390 114.610085,663.625977 111.279419,664.002502 
	C111.215668,663.350281 111.151909,662.697998 111.403046,661.895874 
z"/>
<path fill="#1A84CB" opacity="1.000000" stroke="none" 
	d="
M1035.608398,41.501007 
	C1039.108032,41.891827 1042.233887,42.314476 1045.359619,42.737125 
	C1045.327148,43.210808 1045.294556,43.684486 1045.261963,44.158169 
	C1041.558105,45.630859 1037.785889,44.861526 1034.002563,43.728855 
	C1034.413208,42.996841 1034.823853,42.264839 1035.608398,41.501007 
z"/>
<path fill="#1A84CB" opacity="1.000000" stroke="none" 
	d="
M1025.757080,38.441372 
	C1027.037231,39.222240 1027.996826,39.847507 1028.956421,40.472775 
	C1028.634521,41.089352 1028.312622,41.705933 1027.990723,42.322510 
	C1024.744263,40.756866 1021.497925,39.191219 1018.251587,37.625576 
	C1018.562439,36.881744 1018.873352,36.137909 1019.184265,35.394073 
	C1021.268311,36.357975 1023.352356,37.321873 1025.757080,38.441372 
z"/>
<path fill="#1A84CB" opacity="1.000000" stroke="none" 
	d="
M98.770035,667.375366 
	C97.376122,667.426758 96.341614,667.357727 95.307106,667.288696 
	C95.236183,666.725708 95.165268,666.162720 95.094345,665.599731 
	C98.528419,664.798340 101.962502,663.996887 105.396576,663.195496 
	C105.568489,663.840393 105.740402,664.485291 105.912315,665.130127 
	C103.651360,665.838379 101.390396,666.546631 98.770035,667.375366 
z"/>
<path fill="#1A84CB" opacity="1.000000" stroke="none" 
	d="
M138.586884,646.431641 
	C139.707703,646.095642 141.440674,645.779297 141.609299,646.158569 
	C142.497711,648.156738 142.991318,650.330444 143.936096,653.495728 
	C139.323212,652.601868 138.929474,649.662354 138.586884,646.431641 
z"/>
<path fill="#1A84CB" opacity="1.000000" stroke="none" 
	d="
M162.207962,657.815002 
	C165.521530,657.273926 168.499847,656.867981 171.478165,656.462036 
	C171.587418,657.193115 171.696655,657.924255 171.805908,658.655334 
	C168.519516,659.073059 165.233139,659.490784 161.946747,659.908508 
	C161.922058,659.255737 161.897385,658.602905 162.207962,657.815002 
z"/>
<path fill="#1A84CB" opacity="1.000000" stroke="none" 
	d="
M147.601349,637.095947 
	C149.039261,637.068848 150.157516,637.120972 151.275787,637.173096 
	C151.326569,637.591553 151.377335,638.010010 151.428101,638.428467 
	C148.438446,639.673889 145.448792,640.919373 142.459137,642.164795 
	C142.157700,641.629578 141.856262,641.094360 141.554825,640.559143 
	C143.463791,639.431091 145.372757,638.303040 147.601349,637.095947 
z"/>
<path fill="#1A84CB" opacity="1.000000" stroke="none" 
	d="
M179.646362,652.808838 
	C181.698441,651.931030 183.426941,651.198853 185.155441,650.466675 
	C185.419144,651.104919 185.682861,651.743164 185.946564,652.381409 
	C182.922241,653.838745 179.897919,655.296021 176.873581,656.753296 
	C176.570984,656.192505 176.268402,655.631714 175.965805,655.070923 
	C177.084793,654.365479 178.203796,653.659973 179.646362,652.808838 
z"/>
<path fill="#1A84CB" opacity="1.000000" stroke="none" 
	d="
M90.687973,668.424683 
	C87.853165,670.352722 84.871773,671.975464 81.890381,673.598206 
	C81.592819,672.951294 81.295258,672.304382 80.997696,671.657471 
	C83.694679,669.449097 86.597710,667.678528 90.687973,668.424683 
z"/>
<path fill="#1A84CB" opacity="1.000000" stroke="none" 
	d="
M161.370819,640.397339 
	C162.248672,641.879089 162.883682,643.125244 163.518677,644.371399 
	C163.097107,644.734375 162.675537,645.097351 162.253967,645.460266 
	C160.166519,643.429077 158.079086,641.397949 155.991653,639.366760 
	C156.224030,638.902039 156.456390,638.437317 156.688766,637.972595 
	C158.168503,638.702271 159.648224,639.432007 161.370819,640.397339 
z"/>
<path fill="#1A84CB" opacity="1.000000" stroke="none" 
	d="
M193.522308,642.016235 
	C194.457336,642.217651 195.108231,642.552917 195.759125,642.888245 
	C194.204147,645.724365 192.508926,648.374695 187.352509,648.689636 
	C189.854874,645.909302 191.546524,644.029785 193.522308,642.016235 
z"/>
<path fill="#1A84CB" opacity="1.000000" stroke="none" 
	d="
M346.837280,658.577271 
	C345.796204,658.660583 344.523956,658.535156 343.108063,658.167603 
	C344.178314,658.073181 345.392212,658.220886 346.837280,658.577271 
z"/>
<path fill="#1A84CB" opacity="1.000000" stroke="none" 
	d="
M339.760132,657.142273 
	C339.345612,657.318787 338.774933,657.343872 338.087646,657.138428 
	C338.515320,656.935608 339.059662,656.963257 339.760132,657.142273 
z"/>
<path fill="#1A84CB" opacity="1.000000" stroke="none" 
	d="
M1161.532715,5.267631 
	C1161.418823,5.451454 1161.154297,5.413945 1161.076660,5.305353 
	C1161.214844,5.159110 1161.430664,5.121459 1161.532715,5.267631 
z"/>
<path fill="#0B81CA" opacity="1.000000" stroke="none" 
	d="
M1009.118652,21.689053 
	C1008.537048,22.019337 1008.102966,22.015388 1007.343384,22.011581 
	C1006.354370,19.681967 1005.497131,17.381451 1005.138428,15.005657 
	C1005.022095,14.235410 1006.211487,13.267974 1006.803650,12.390702 
	C1007.515198,13.137678 1008.698669,13.802217 1008.846436,14.647716 
	C1009.229614,16.840933 1009.156921,19.113775 1009.118652,21.689053 
z"/>
<path fill="#1A84CB" opacity="1.000000" stroke="none" 
	d="
M252.150909,667.148560 
	C252.896317,666.441528 253.828140,665.993530 255.060226,665.479126 
	C254.352783,666.077637 253.345062,666.742554 252.150909,667.148560 
z"/>
<path fill="#0B81CA" opacity="1.000000" stroke="none" 
	d="
M1268.515625,36.474983 
	C1259.619507,43.613316 1248.418701,41.552322 1242.243164,31.962734 
	C1251.900146,24.338303 1261.313477,31.581177 1271.717773,31.968672 
	C1270.401611,33.862251 1269.590210,35.029560 1268.515625,36.474983 
z"/>
<path fill="#0B81CA" opacity="1.000000" stroke="none" 
	d="
M1237.158447,30.001301 
	C1232.559204,29.538857 1228.098755,29.566969 1224.177002,28.127245 
	C1217.154297,25.549095 1215.873901,19.150064 1220.912109,12.384301 
	C1226.252319,18.491997 1237.417725,18.604776 1237.158447,30.001301 
z"/>
<path fill="#0B81CA" opacity="1.000000" stroke="none" 
	d="
M1263.350586,28.807213 
	C1260.557617,28.141205 1258.172119,27.537739 1254.407471,26.585413 
	C1261.912842,23.899652 1268.162598,21.663179 1275.444824,19.057266 
	C1274.632935,22.639599 1274.266968,25.385559 1273.308105,27.905939 
	C1272.945557,28.859001 1271.222900,29.826767 1270.104370,29.845613 
	C1267.994995,29.881155 1265.874268,29.233461 1263.350586,28.807213 
z"/>
<path fill="#0B81CA" opacity="1.000000" stroke="none" 
	d="
M1234.123901,14.535072 
	C1234.275146,16.143858 1234.374268,17.359928 1234.553711,19.562698 
	C1230.040161,16.519697 1226.303711,14.000612 1221.639160,10.855827 
	C1225.792114,8.484231 1229.086548,6.602980 1232.848999,4.454400 
	C1233.313110,8.131299 1233.692505,11.136829 1234.123901,14.535072 
z"/>
<path fill="#1A84CB" opacity="1.000000" stroke="none" 
	d="
M1245.844727,25.893740 
	C1246.409912,26.624374 1246.621582,27.237223 1246.833374,27.850071 
	C1244.838867,28.410715 1242.844360,28.971359 1240.530273,29.621836 
	C1239.805664,27.572418 1239.242310,25.978666 1238.366821,23.502348 
	C1241.293701,24.436388 1243.392578,25.106171 1245.844727,25.893740 
z"/>
<path fill="#DFEFF8" opacity="1.000000" stroke="none" 
	d="
M1266.730225,13.286650 
	C1263.635986,19.710415 1253.308960,21.051634 1247.701050,16.967020 
	C1243.294434,13.757377 1242.993164,8.807436 1247.053833,5.178491 
	C1250.854614,1.781836 1256.828247,1.210237 1261.957764,3.744071 
	C1265.781982,5.633140 1267.873291,8.442764 1266.730225,13.286650 
z"/>
<path fill="#027FC9" opacity="1.000000" stroke="none" 
	d="
M283.395752,657.470825 
	C282.935150,657.414978 282.655151,657.187866 282.375153,656.960815 
	C282.560303,656.785156 282.745453,656.609436 282.930603,656.433777 
	C283.145874,656.722351 283.361145,657.010986 283.395752,657.470825 
z"/>
<path fill="#DFEFF8" opacity="1.000000" stroke="none" 
	d="
M1126.994751,31.842470 
	C1127.277100,31.896965 1127.528320,32.016705 1127.871582,32.372166 
	C1124.434692,38.257526 1120.874268,43.972420 1116.858398,50.418362 
	C1116.543823,47.602783 1116.343750,45.811642 1116.070923,43.368931 
	C1113.661011,45.436691 1112.031494,46.834858 1110.401978,48.233025 
	C1109.980591,47.946766 1109.559204,47.660511 1109.137817,47.374252 
	C1109.786499,45.787655 1110.435181,44.201057 1111.318115,42.041069 
	C1108.688599,42.832058 1106.395752,43.521759 1104.102783,44.211464 
	C1103.914795,43.736317 1103.726807,43.261173 1103.538818,42.786026 
	C1104.754883,41.890553 1105.970947,40.995075 1107.187012,40.099602 
	C1107.075806,39.785343 1106.964600,39.471081 1106.853394,39.156822 
	C1105.084961,39.415154 1103.316650,39.673485 1101.548218,39.931816 
	C1101.431274,39.661961 1101.314209,39.392101 1101.197266,39.122246 
	C1107.918701,35.666992 1114.640259,32.211735 1121.716064,28.637718 
	C1122.070312,28.518955 1122.333740,28.556099 1122.158203,28.935049 
	C1117.215210,32.051357 1112.447510,34.788712 1106.444824,38.235199 
	C1111.342407,40.613674 1115.044434,42.411476 1118.677490,44.175823 
	C1121.659668,39.753609 1124.327148,35.798035 1126.994751,31.842470 
z"/>
<path fill="#FFFFFF" opacity="1.000000" stroke="none" 
	d="
M242.374725,627.363892 
	C241.744690,627.682617 241.114685,628.001343 240.484695,628.320068 
	C240.625671,627.809509 240.766632,627.299011 241.427719,626.863281 
	C242.090134,627.080017 242.232437,627.221985 242.374725,627.363892 
z"/>
<path fill="#FFFFFF" opacity="1.000000" stroke="none" 
	d="
M248.551880,621.014648 
	C248.257217,621.499023 247.779633,621.639465 247.302032,621.779907 
	C247.657669,621.410156 248.013306,621.040405 248.551880,621.014648 
z"/>
<path fill="#FFFFFF" opacity="1.000000" stroke="none" 
	d="
M241.744781,626.715149 
	C241.909851,626.270813 242.278000,626.049377 242.646149,625.828003 
	C242.722260,626.195923 242.798340,626.563843 242.624573,627.147827 
	C242.232437,627.221985 242.090134,627.080017 241.744781,626.715149 
z"/>
<path fill="#FFFFFF" opacity="1.000000" stroke="none" 
	d="
M45.980850,639.060425 
	C48.669781,643.678894 45.922234,645.519958 42.503963,646.690552 
	C38.753777,647.974915 33.604416,645.823059 33.664604,642.725586 
	C33.700958,640.854431 35.765209,637.786377 37.364517,637.462952 
	C39.958176,636.938599 42.918396,638.227051 45.980850,639.060425 
z"/>
<path fill="#F7FBFD" opacity="1.000000" stroke="none" 
	d="
M906.333557,11.504524 
	C908.640808,14.261469 907.502625,16.802862 905.252869,17.412571 
	C902.554016,18.143984 899.358582,17.678391 896.560364,16.990110 
	C895.797119,16.802345 894.889587,12.923022 895.423401,12.508529 
	C897.344421,11.016614 899.777710,9.932668 902.173157,9.414529 
	C903.291077,9.172716 904.765747,10.579838 906.333557,11.504524 
z"/>
<path fill="#F7FBFD" opacity="1.000000" stroke="none" 
	d="
M19.087795,525.083008 
	C21.420462,526.331299 23.471638,527.459412 25.150732,528.994629 
	C25.407084,529.229004 24.176189,532.154480 23.226395,532.429260 
	C21.023735,533.066467 18.479555,533.270081 16.260981,532.788025 
	C15.162123,532.549255 13.486822,529.623657 13.774447,529.260010 
	C15.079792,527.609802 16.991364,526.439026 19.087795,525.083008 
z"/>
<path fill="#FCB041" opacity="1.000000" stroke="none" 
	d="
M1126.838623,31.567707 
	C1124.327148,35.798035 1121.659668,39.753609 1118.677490,44.175823 
	C1115.044434,42.411476 1111.342407,40.613674 1106.444824,38.235199 
	C1112.447510,34.788712 1117.215210,32.051357 1122.248047,29.033237 
	C1123.902954,29.599300 1125.292725,30.446127 1126.838623,31.567707 
z"/>
</svg>